<?xml version="1.0" standalone="no"?>
<!DOCTYPE svg PUBLIC "-//W3C//DTD SVG 20010904//EN"
 "http://www.w3.org/TR/2001/REC-SVG-20010904/DTD/svg10.dtd">
<svg version="1.0" xmlns="http://www.w3.org/2000/svg"
 width="360.000000pt" height="360.000000pt" viewBox="0 0 360.000000 360.000000"
 preserveAspectRatio="xMidYMid meet">
<metadata>
Created by potrace 1.14, written by Peter Selinger 2001-2017
</metadata>
<g transform="translate(0.000000,360.000000) scale(0.100000,-0.100000)"
fill="#000000" stroke="none">
<path d="M1525 3004 c-82 -11 -122 -27 -333 -127 -52 -24 -111 -82 -237 -232
-89 -107 -134 -178 -150 -240 -4 -16 -11 -73 -15 -125 -5 -52 -15 -120 -25
-150 -37 -124 -27 -304 21 -377 8 -14 34 -68 57 -122 49 -114 131 -257 135
-237 2 8 -4 54 -12 102 -10 57 -12 90 -6 92 6 2 10 33 10 68 0 50 3 64 15 64
8 0 15 4 15 10 0 5 -7 7 -15 4 -12 -5 -15 6 -15 62 0 53 7 87 31 149 17 44 36
92 41 108 7 17 21 30 37 34 32 7 246 90 282 109 25 12 27 12 22 -6 -4 -17 -1
-19 28 -15 19 3 61 7 94 9 33 2 85 9 115 16 30 6 89 18 130 27 97 20 166 60
235 134 30 33 55 56 55 51 0 -4 -11 -37 -25 -72 -14 -35 -24 -65 -22 -66 1 -1
58 -5 127 -8 l124 -5 22 -88 c12 -48 27 -101 34 -118 12 -32 40 -157 40 -181
0 -8 -4 -12 -10 -9 -5 3 -10 1 -10 -5 0 -6 7 -10 16 -8 23 4 40 -55 48 -172 4
-55 10 -110 15 -122 6 -18 10 -13 21 28 30 116 75 254 102 312 53 120 39 223
-69 490 -61 153 -82 194 -128 251 -30 38 -73 81 -96 95 -22 15 -57 42 -77 60
-42 38 -121 80 -170 91 -18 4 -60 25 -93 48 -49 34 -74 44 -142 55 -93 16
-178 22 -222 16z"/>
<path d="M1968 2123 c-21 -3 -38 -8 -38 -14 0 -5 -3 -8 -7 -7 -19 5 -93 -13
-93 -23 0 -5 4 -7 10 -4 6 3 7 -1 4 -10 -5 -13 -2 -15 22 -9 16 3 35 13 42 22
7 9 12 11 12 4 0 -13 27 -12 50 3 8 5 26 9 40 10 14 1 43 2 65 4 l40 3 -35 9
c-52 14 -71 16 -112 12z"/>
<path d="M1246 2061 c-4 -5 -24 -12 -46 -16 -22 -4 -40 -11 -40 -16 0 -14 38
-11 43 4 3 7 6 8 6 1 1 -7 15 -10 39 -7 20 2 56 0 79 -5 32 -7 41 -7 36 2 -4
6 1 5 10 -2 14 -12 19 -12 32 1 16 17 3 33 -17 21 -7 -5 -8 -3 -3 6 6 10 2 11
-18 6 -14 -3 -29 -2 -32 4 -8 13 -82 13 -89 1z"/>
<path d="M1945 1872 c-46 -22 -69 -45 -84 -85 -10 -25 -9 -28 6 -25 10 2 17
11 15 19 -1 9 9 26 23 39 19 18 25 20 25 8 0 -9 8 -26 18 -38 15 -18 24 -21
50 -16 21 5 29 12 25 22 -4 10 0 12 11 8 9 -3 13 -10 10 -15 -3 -5 1 -9 9 -9
11 0 15 11 13 40 -1 46 3 48 35 20 24 -20 24 -20 5 -35 -25 -19 -13 -19 23 0
16 8 31 11 35 8 3 -4 6 -1 6 5 0 7 -3 12 -8 12 -4 0 -19 10 -32 23 -30 26 -41
30 -100 34 -29 2 -59 -3 -85 -15z"/>
<path d="M1268 1810 c-40 -12 -81 -39 -101 -67 -11 -13 -17 -26 -15 -28 1 -2
26 -6 53 -9 44 -5 46 -4 18 4 -38 12 -41 23 -11 44 20 14 22 13 37 -17 13 -27
22 -32 51 -32 21 0 35 5 35 13 0 6 5 11 10 10 6 -2 9 -7 7 -11 -1 -5 3 -7 10
-5 7 3 14 19 16 36 2 18 7 32 13 32 14 0 50 -40 44 -49 -2 -5 4 -11 15 -14 30
-8 24 12 -15 49 -49 46 -108 62 -167 44z"/>
<path d="M2050 1210 c0 -5 -18 -15 -41 -21 -34 -11 -38 -15 -26 -24 11 -8 13
-16 5 -30 -6 -11 10 0 36 25 46 44 55 60 36 60 -5 0 -10 -4 -10 -10z"/>
<path d="M1038 1158 c23 -24 36 -21 26 6 -3 9 -16 16 -27 16 l-21 0 22 -22z"/>
<path d="M1498 1134 c-4 -3 -32 -5 -63 -5 -61 0 -67 -11 -20 -37 17 -9 33 -21
37 -27 4 -5 8 -6 8 -1 0 4 11 1 25 -8 14 -9 25 -14 25 -10 0 4 7 0 16 -7 18
-14 134 -17 189 -4 17 3 55 8 85 10 30 1 71 10 90 18 l35 15 -38 -1 c-20 0
-37 -4 -37 -7 0 -3 -15 -7 -32 -7 -18 -1 -88 -6 -155 -10 -111 -7 -126 -6
-167 12 -48 21 -58 33 -28 34 9 0 69 1 132 2 96 1 107 3 65 9 -27 5 -66 13
-85 19 -38 12 -73 14 -82 5z"/>
<path d="M1728 1103 c7 -3 16 -2 19 1 4 3 -2 6 -13 5 -11 0 -14 -3 -6 -6z"/>
<path d="M406 717 c-41 -53 -96 -287 -162 -684 l-5 -33 699 0 699 0 -13 93
c-8 50 -16 111 -19 134 l-6 43 33 -6 33 -7 -40 44 c-22 24 -48 49 -58 57 -40
31 -66 63 -79 97 -15 43 -6 44 -173 -18 -66 -24 -145 -50 -175 -56 -53 -12
-200 -79 -200 -92 0 -9 -249 -114 -258 -109 -2 1 -16 -4 -33 -10 -16 -7 -32
-11 -34 -8 -8 8 24 185 60 327 43 169 44 193 9 220 -36 28 -52 26 -60 -6 -10
-49 -13 -53 -36 -52 -13 0 -45 6 -73 13 -46 10 -50 14 -55 45 -7 46 -23 49
-54 8z"/>
<path d="M2068 514 c13 -6 16 -43 6 -93 -8 -37 -93 -129 -144 -154 l-35 -18
50 7 c28 4 54 12 58 18 5 6 6 -53 4 -131 l-4 -143 343 0 c189 0 344 3 344 8
-1 39 -35 121 -72 169 -25 32 -53 73 -64 91 -10 19 -35 42 -54 51 -19 10 -73
40 -120 67 -76 44 -253 119 -305 130 -11 2 -14 2 -7 -2z"/>
<path d="M1678 253 c7 -3 16 -2 19 1 4 3 -2 6 -13 5 -11 0 -14 -3 -6 -6z"/>
</g>
</svg>
